<?xml version="1.0" standalone="no"?>
<!DOCTYPE svg PUBLIC "-//W3C//DTD SVG 20010904//EN"
 "http://www.w3.org/TR/2001/REC-SVG-20010904/DTD/svg10.dtd">
<svg version="1.0" xmlns="http://www.w3.org/2000/svg"
 width="100.000000pt" height="100.000000pt" viewBox="0 0 100.000000 100.000000"
 preserveAspectRatio="xMidYMid meet">
<metadata>
Created by potrace 1.14, written by Peter Selinger 2001-2017
</metadata>
<g transform="translate(0.000000,100.000000) scale(0.100000,-0.100000)"
fill="#000000" stroke="none">
<path d="M622 854 c-197 -98 -79 -380 140 -333 170 37 199 263 44 335 -66 31
-119 30 -184 -2z m137 -101 c55 -46 24 -133 -46 -133 -49 0 -73 24 -73 72 0
68 68 103 119 61z"/>
<path d="M160 685 l0 -175 168 2 167 3 3 52 3 52 -108 3 -108 3 -3 118 -3 117
-59 0 -60 0 0 -175z"/>
<path d="M275 485 c-116 -31 -168 -167 -104 -272 40 -64 133 -96 216 -74 47
13 109 74 119 118 3 16 7 33 9 38 1 6 8 -9 14 -32 40 -144 264 -179 346 -54
98 149 -38 323 -216 277 -60 -16 -116 -67 -125 -114 l-5 -27 -102 0 -102 0 0
-45 c0 -44 1 -45 35 -50 27 -4 31 -7 17 -13 -48 -19 -92 -5 -113 35 -20 38
-10 82 23 108 33 26 68 25 94 -1 21 -21 22 -21 61 -3 50 22 52 26 27 58 -42
53 -115 72 -194 51z m469 -106 c36 -17 52 -61 36 -99 -22 -53 -69 -65 -114
-29 -20 16 -26 29 -26 59 0 30 6 43 26 59 30 24 43 26 78 10z"/>
</g>
</svg>
